<?xml version="1.0" encoding="utf-8"?>
<!-- Generator: Adobe Illustrator 16.0.0, SVG Export Plug-In . SVG Version: 6.00 Build 0)  -->
<!DOCTYPE svg PUBLIC "-//W3C//DTD SVG 1.1//EN" "http://www.w3.org/Graphics/SVG/1.1/DTD/svg11.dtd">
<svg version="1.1" id="Capa_1" xmlns="http://www.w3.org/2000/svg" xmlns:xlink="http://www.w3.org/1999/xlink" x="0px" y="0px"
	 width="256px" height="256px" viewBox="0 0 256 256" enable-background="new 0 0 256 256" xml:space="preserve">
<g>
	<path d="M15.2,63.443c-0.061,0.2-0.2,0.169-0.2,0.359c0,42.232,0,84.468,0,126.699c1.139,1.228,0.98,2.755,1.939,3.667
		c1.231,1.168,2.807,2.831,4.288,2.831c70.565,0,141.132,0,211.699,0c1.44,0,3.008-1.71,4.289-2.805
		c1.279-1.098,1.802-2.729,1.802-4.465c-0.003-41.648,0-83.099-0.007-124.746c0-3.399-2.695-6.984-5.994-6.984H21.256
		C18.242,58,16.192,60.247,15.2,63.443z M202,179.266c0-34.789,0-69.578,0-104.367c0-1.982-0.295-1.982,1.64-1.982
		c6.237-0.002,12.325,0.026,18.561-0.026c1.176-0.009,1.445,0.34,1.444,1.516c-0.03,35.146-0.06,70.293-0.061,105.438
		c0,0.395-0.068,0.789-0.103,1.32c-0.439,0.042-0.753,0.096-1.057,0.096c-6.594,0.003-13.193-0.011-19.785,0.021
		c-0.917,0.006-1.039-0.274-0.935-1.211C201.733,179.804,202,179.536,202,179.266z M169,179.531c0-34.961,0-69.922,0-104.883
		c0-1.729-0.434-1.732,1.317-1.732c4.855-0.005,9.488,0.026,14.343-0.022c1.117-0.013,1.328,0.363,1.328,1.454
		c-0.027,35.184-0.078,70.368-0.082,105.552c0,0.64,0.588,1.377-0.504,1.373c-5.518-0.023-11.402-0.012-16.402-0.012
		C169,180.571,169,180.053,169,179.531z M135,73.004c1-0.033,0.83-0.084,1.262-0.086c4.941-0.007,9.841,0.028,14.782-0.026
		c1.143-0.014,1.506,0.275,1.504,1.482c-0.031,35.178-0.038,70.354-0.033,105.53c0,0.736,0.087,1.39-1.045,1.378
		c-5.342-0.046-10.603-0.022-15.947-0.033c-0.167,0,0.478-0.053-0.522-0.096C135,145.058,135,109.094,135,73.004z M102,179.249
		c0-34.786,0-69.568,0-104.351c0-1.982-0.28-1.982,1.655-1.982c4.763-0.002,9.389,0.03,14.154-0.024
		c1.128-0.011,1.46,0.249,1.46,1.474c-0.03,35.184-0.062,70.365-0.065,105.549c0,0.391-0.063,0.78-0.098,1.346
		c-5.721,0-11.292,0.01-16.856-0.037c-0.265-0.001-0.363-0.462-0.486-0.784C101.627,180.089,102,179.647,102,179.249z M69,179.422
		c0-34.874,0-69.748,0-104.618c0-1.886-0.423-1.888,1.44-1.888c4.679-0.002,9.198-0.005,13.877,0c1.835,0,1.683,0.002,1.683,1.811
		c0,33.001,0,66.002,0,99.004c0,2.139-0.062,4.274-0.055,6.413c0.002,0.631-0.068,1.133-0.928,1.129
		c-5.476-0.036-10.543-0.038-16.021-0.056c-0.076,0,0.003-0.068,0.003-0.188C69,180.482,69,179.95,69,179.422z M31,179.539
		c0-34.965,0-69.929,0-104.891c0-1.729-0.266-1.732,1.488-1.732c6.281-0.002,12.429,0.026,18.708-0.026
		c1.183-0.009,1.426,0.347,1.426,1.516c-0.031,35.144-0.06,70.692-0.06,105.835c0,0.396-0.068,0.76-0.095,1.76
		C45.1,182,38,182,31,182C31,181,31,180.06,31,179.539z"/>
</g>
</svg>
