<?xml version="1.0" encoding="utf-8"?>
<!-- Generator: Adobe Illustrator 16.0.0, SVG Export Plug-In . SVG Version: 6.00 Build 0)  -->
<!DOCTYPE svg PUBLIC "-//W3C//DTD SVG 1.1//EN" "http://www.w3.org/Graphics/SVG/1.1/DTD/svg11.dtd">
<svg version="1.1" id="Capa_1" xmlns="http://www.w3.org/2000/svg" xmlns:xlink="http://www.w3.org/1999/xlink" x="0px" y="0px"
	 width="160px" height="216px" viewBox="0 -28 160 216" enable-background="new 0 -28 160 216" xml:space="preserve">
<rect y="-28" fill="none" width="160" height="216"/>
<path fill="#00B2FF" d="M80,16L80,16c3.093,0,5.6,3.582,5.6,8v16c0,4.418-2.507,8-5.6,8l0,0c-3.093,0-5.6-3.582-5.6-8V24
	C74.4,19.582,76.907,16,80,16z">
<animate  fill="remove" restart="always" calcMode="linear" additive="replace" accumulate="none" repeatCount="indefinite" begin="0s" dur="1s" to="0" from="1" attributeName="opacity">
		</animate>
</path>
<path fill="#00B2FF" d="M112,24.574L112,24.574c2.678,1.546,3.059,5.902,0.85,9.729l-8,13.856c-2.209,3.826-6.172,5.674-8.85,4.128
	l0,0c-2.678-1.546-3.059-5.902-0.85-9.728l8-13.856C105.359,24.876,109.322,23.028,112,24.574z">
<animate  fill="remove" restart="always" calcMode="linear" additive="replace" accumulate="none" repeatCount="indefinite" begin="0.08333333333333333s" dur="1s" to="0" from="1" attributeName="opacity">
		</animate>
</path>
<path fill="#00B2FF" d="M135.426,48L135.426,48c1.547,2.678-0.303,6.641-4.129,8.85l-13.855,8c-3.826,2.209-8.182,1.829-9.729-0.85
	l0,0c-1.547-2.679,0.302-6.641,4.128-8.85l13.856-8C129.523,44.941,133.879,45.321,135.426,48z">
<animate  fill="remove" restart="always" calcMode="linear" additive="replace" accumulate="none" repeatCount="indefinite" begin="0.16666666666666666s" dur="1s" to="0" from="1" attributeName="opacity">
		</animate>
</path>
<path fill="#00B2FF" d="M144,80L144,80c0,3.093-3.582,5.6-8,5.6h-16c-4.418,0-8-2.507-8-5.6l0,0c0-3.093,3.582-5.6,8-5.6h16
	C140.418,74.4,144,76.907,144,80z">
<animate  fill="remove" restart="always" calcMode="linear" additive="replace" accumulate="none" repeatCount="indefinite" begin="0.25s" dur="1s" to="0" from="1" attributeName="opacity">
		</animate>
</path>
<path fill="#00B2FF" d="M135.426,112L135.426,112c-1.547,2.678-5.902,3.059-9.729,0.85l-13.856-8
	c-3.826-2.209-5.675-6.172-4.128-8.85l0,0c1.547-2.679,5.902-3.059,9.729-0.85l13.855,8
	C135.123,105.359,136.973,109.321,135.426,112z">
<animate  fill="remove" restart="always" calcMode="linear" additive="replace" accumulate="none" repeatCount="indefinite" begin="0.3333333333333333s" dur="1s" to="0" from="1" attributeName="opacity">
		</animate>
</path>
<path fill="#00B2FF" d="M112,135.426L112,135.426c-2.678,1.547-6.641-0.302-8.85-4.129l-8-13.855
	c-2.209-3.826-1.828-8.182,0.85-9.729l0,0c2.678-1.547,6.641,0.302,8.85,4.128l8,13.856
	C115.059,129.523,114.678,133.879,112,135.426z">
<animate  fill="remove" restart="always" calcMode="linear" additive="replace" accumulate="none" repeatCount="indefinite" begin="0.4166666666666667s" dur="1s" to="0" from="1" attributeName="opacity">
		</animate>
</path>
<path fill="#00B2FF" d="M80,144L80,144c-3.093,0-5.6-3.582-5.6-8v-16c0-4.418,2.507-8,5.6-8l0,0c3.093,0,5.6,3.582,5.6,8v16
	C85.6,140.418,83.093,144,80,144z">
<animate  fill="remove" restart="always" calcMode="linear" additive="replace" accumulate="none" repeatCount="indefinite" begin="0.5s" dur="1s" to="0" from="1" attributeName="opacity">
		</animate>
</path>
<path fill="#00B2FF" d="M48,135.426L48,135.426c-2.678-1.547-3.059-5.902-0.85-9.729l8-13.856c2.209-3.826,6.171-5.675,8.85-4.128
	l0,0c2.678,1.547,3.059,5.902,0.85,9.729l-8,13.855C54.641,135.123,50.678,136.973,48,135.426z">
<animate  fill="remove" restart="always" calcMode="linear" additive="replace" accumulate="none" repeatCount="indefinite" begin="0.5833333333333334s" dur="1s" to="0" from="1" attributeName="opacity">
		</animate>
</path>
<path fill="#00B2FF" d="M24.574,112L24.574,112c-1.546-2.678,0.302-6.641,4.128-8.85l13.856-8c3.826-2.209,8.182-1.828,9.728,0.85
	l0,0c1.546,2.678-0.302,6.641-4.128,8.85l-13.856,8C30.476,115.059,26.121,114.678,24.574,112z">
<animate  fill="remove" restart="always" calcMode="linear" additive="replace" accumulate="none" repeatCount="indefinite" begin="0.6666666666666666s" dur="1s" to="0" from="1" attributeName="opacity">
		</animate>
</path>
<path fill="#00B2FF" d="M16,80L16,80c0-3.093,3.582-5.6,8-5.6h16c4.418,0,8,2.507,8,5.6l0,0c0,3.093-3.582,5.6-8,5.6H24
	C19.582,85.6,16,83.093,16,80z">
<animate  fill="remove" restart="always" calcMode="linear" additive="replace" accumulate="none" repeatCount="indefinite" begin="0.75s" dur="1s" to="0" from="1" attributeName="opacity">
		</animate>
</path>
<path fill="#00B2FF" d="M24.574,48L24.574,48c1.546-2.678,5.902-3.059,9.729-0.85l13.856,8c3.826,2.209,5.674,6.171,4.128,8.85l0,0
	c-1.546,2.679-5.902,3.059-9.728,0.85l-13.856-8C24.876,54.641,23.028,50.679,24.574,48z">
<animate  fill="remove" restart="always" calcMode="linear" additive="replace" accumulate="none" repeatCount="indefinite" begin="0.8333333333333334s" dur="1s" to="0" from="1" attributeName="opacity">
		</animate>
</path>
<path fill="#00B2FF" d="M48,24.574L48,24.574c2.678-1.546,6.641,0.302,8.85,4.128l8,13.856c2.209,3.826,1.829,8.182-0.85,9.728l0,0
	c-2.678,1.546-6.641-0.302-8.85-4.128l-8-13.856C44.941,30.476,45.322,26.121,48,24.574z">
<animate  fill="remove" restart="always" calcMode="linear" additive="replace" accumulate="none" repeatCount="indefinite" begin="0.9166666666666666s" dur="1s" to="0" from="1" attributeName="opacity">
		</animate>
</path>
</svg>
