<?xml version="1.0" encoding="utf-8"?>
<!-- Generator: Adobe Illustrator 16.0.0, SVG Export Plug-In . SVG Version: 6.00 Build 0)  -->
<!DOCTYPE svg PUBLIC "-//W3C//DTD SVG 1.1//EN" "http://www.w3.org/Graphics/SVG/1.1/DTD/svg11.dtd">
<svg version="1.1" id="Capa_1" xmlns="http://www.w3.org/2000/svg" xmlns:xlink="http://www.w3.org/1999/xlink" x="0px" y="0px"
	 width="42.705px" height="25px" viewBox="0 0 42.705 25" enable-background="new 0 0 42.705 25" xml:space="preserve">
<g>
	<path fill-rule="evenodd" clip-rule="evenodd" fill="#FFFFFF" d="M26.781,14.221c-0.02-0.284-0.05-0.518-0.094-0.697l4.475-4.445
		c-0.12,4.805-2.954,9.009-6.692,11.267C25.98,18.747,26.881,16.561,26.781,14.221z"/>
	<path fill-rule="evenodd" clip-rule="evenodd" fill="#FFFFFF" d="M10.879,14.258h15.07c0.178,4.214-3.242,7.857-7.434,7.857
		C14.138,22.115,10.879,18.59,10.879,14.258z"/>
	<polygon fill="#FFFFFF" points="25.829,13.001 21.832,13.001 21.832,9.006 27.16,3.677 31.158,3.677 31.158,7.669 	"/>
	<polygon fill="#FFFFFF" points="10.871,9.006 16.2,3.677 20.198,3.677 14.868,9.006 14.868,13.001 10.871,13.001 	"/>
	<polygon fill="#FFFFFF" points="16.352,9.006 21.681,3.677 25.677,3.677 20.348,9.006 20.348,13.001 16.352,13.001 	"/>
	<path fill-rule="evenodd" clip-rule="evenodd" fill="#FFFFFF" d="M42.158,11.806H31.533c0.062-0.259,0.113-0.52,0.158-0.783h1.73
		c0.276-0.418,0.508-0.868,0.679-1.349l7.893,0.775C42.077,10.899,42.132,11.342,42.158,11.806z"/>
	<path fill-rule="evenodd" clip-rule="evenodd" fill="#FFFFFF" d="M31.879,8.234h2.551c0.025-0.225,0.04-0.453,0.04-0.686
		c0-0.209-0.012-0.412-0.029-0.61l6.602,0.649c0.229,0.467,0.422,0.936,0.586,1.43h-9.749V8.234z"/>
	<path fill-rule="evenodd" clip-rule="evenodd" fill="#FFFFFF" d="M31.879,5.457h2.234c-0.103-0.285-0.216-0.559-0.355-0.82
		l5.729,0.565c0.283,0.337,0.547,0.68,0.788,1.045h-8.396V5.457z"/>
	<path fill-rule="evenodd" clip-rule="evenodd" fill="#FFFFFF" d="M14.568,4.289L5.18,3.49c0.433-0.34,1.063-0.836,1.541-1.13
		h12.992V2.108L9.3,1.083c1.804-0.68,3.793-1.063,5.891-1.063c3.578,0,6.853,1.104,9.39,2.937l-8.679-0.002L14.568,4.289z"/>
	<path fill-rule="evenodd" clip-rule="evenodd" fill="#FFFFFF" d="M31.879,3.042h0.677c-0.419-0.403-0.896-0.743-1.412-1.01
		l5.403,0.533c0.581,0.389,1.131,0.802,1.64,1.262h-6.308V3.042z"/>
	<path fill-rule="evenodd" clip-rule="evenodd" fill="#FFFFFF" d="M11.756,7.101L2.595,6.202c0.256-0.375,0.533-0.713,0.833-1.061
		h10.29L11.756,7.101z"/>
	<path fill-rule="evenodd" clip-rule="evenodd" fill="#FFFFFF" d="M10.155,9.971L1.152,9.085c0.15-0.452,0.329-0.879,0.536-1.307
		h9.39l-0.923,0.929V9.971z"/>
	<path fill-rule="evenodd" clip-rule="evenodd" fill="#FFFFFF" d="M10.155,12.656l-9.535-0.94c0.031-0.425,0.089-0.83,0.17-1.245
		h9.365V12.656z"/>
	<path fill-rule="evenodd" clip-rule="evenodd" fill="#FFFFFF" d="M10.155,13.975H9.318c-0.268,0.407-0.491,0.846-0.66,1.313
		l-7.891-0.776c-0.083-0.445-0.138-0.889-0.166-1.352h9.553V13.975z"/>
	<path fill-rule="evenodd" clip-rule="evenodd" fill="#FFFFFF" d="M10.498,16.728H8.33c-0.026,0.228-0.04,0.455-0.04,0.688
		c0,0.206,0.01,0.41,0.03,0.609l-6.601-0.65c-0.229-0.467-0.424-0.952-0.585-1.447h9.176C10.361,16.199,10.424,16.467,10.498,16.728
		z"/>
	<path fill-rule="evenodd" clip-rule="evenodd" fill="#FFFFFF" d="M11.853,19.501H8.646c0.099,0.286,0.217,0.563,0.356,0.825
		l-5.73-0.562c-0.284-0.346-0.546-0.697-0.789-1.063l8.853,0.011C11.495,18.985,11.667,19.247,11.853,19.501z"/>
	<path fill-rule="evenodd" clip-rule="evenodd" fill="#FFFFFF" d="M14.669,21.913h-4.458c0.417,0.397,0.892,0.752,1.407,1.02
		L6.215,22.4c-0.584-0.391-1.131-0.801-1.64-1.266l8.886,0.008C13.836,21.433,14.242,21.694,14.669,21.913z"/>
	<path fill-rule="evenodd" clip-rule="evenodd" fill="#FFFFFF" d="M25.632,20.451l11.95,0.996c-0.435,0.337-1.063,0.88-1.541,1.171
		H23.049v0.239l10.411,1.021c-1.802,0.679-3.795,1.063-5.891,1.063c-3.033,0-5.832-0.794-8.149-2.146
		C21.61,22.599,23.755,21.76,25.632,20.451z"/>
	<path fill-rule="evenodd" clip-rule="evenodd" fill="#FFFFFF" d="M28.656,17.631l11.509,1.128
		c-0.256,0.376-0.534,0.738-0.832,1.087H26.435C27.245,19.192,27.991,18.449,28.656,17.631z"/>
	<path fill-rule="evenodd" clip-rule="evenodd" fill="#FFFFFF" d="M30.476,14.783l11.132,1.095c-0.15,0.454-0.327,0.877-0.535,1.308
		H29.005C29.567,16.439,30.061,15.634,30.476,14.783z"/>
	<path fill-rule="evenodd" clip-rule="evenodd" fill="#FFFFFF" d="M31.186,13.039c0.401-0.209,0.779-0.465,1.121-0.761l9.835,0.968
		c-0.032,0.428-0.092,0.83-0.171,1.246H30.613C30.83,14.021,31.021,13.535,31.186,13.039z"/>
	<path fill-rule="evenodd" clip-rule="evenodd" fill="#FFFFFF" d="M14.65,24.964c-2.043,0-3.986-0.371-5.745-1.036l11.351-0.004
		C18.434,24.671,16.639,24.964,14.65,24.964z"/>
	<path fill-rule="evenodd" clip-rule="evenodd" fill="#FFFFFF" d="M28.11,0c2.042,0,3.984,0.371,5.746,1.036L22.504,1.039
		C24.326,0.293,26.123,0,28.11,0z"/>
</g>
</svg>
