<?xml version="1.0" encoding="utf-8"?>
<!-- Generator: Adobe Illustrator 16.0.0, SVG Export Plug-In . SVG Version: 6.00 Build 0)  -->
<!DOCTYPE svg PUBLIC "-//W3C//DTD SVG 1.1//EN" "http://www.w3.org/Graphics/SVG/1.1/DTD/svg11.dtd">
<svg version="1.1" id="Capa_1" xmlns="http://www.w3.org/2000/svg" xmlns:xlink="http://www.w3.org/1999/xlink" x="0px" y="0px"
	 width="270px" height="196px" viewBox="0 0 270 196" enable-background="new 0 0 270 196" xml:space="preserve">
<path fill-rule="evenodd" clip-rule="evenodd" fill="#41444D" d="M106.293,175.218c-6.875,0-13.243,0.002-19.609,0
	c-13.448-0.003-26.898,0.019-40.347-0.026c-3.841-0.013-6.556-2.771-6.462-6.339c0.092-3.527,2.621-5.814,6.551-5.911
	c0.996-0.023,1.993,0,2.988,0c67.145-0.005,134.291-0.01,201.436-0.015c0.986,0,1.973,0,3.22,0c0-49.325,0-98.47,0-147.918
	c-79.365,0-158.78,0-238.565,0c0,1.308,0,2.473,0,3.638c-0.001,32.478,0.003,64.955-0.007,97.43
	c-0.001,4.593-2.189,7.171-6.066,7.265c-3.159,0.078-5.781-2.126-6.157-5.287c-0.141-1.18-0.06-2.387-0.06-3.582
	C3.212,81.795,3.213,49.12,3.212,16.444c0-9.013,4.735-13.895,13.795-13.897C95.709,2.519,174.41,2.521,253.112,2.544
	c8.634,0.003,13.526,4.942,13.53,13.562c0.021,48.616,0.023,97.231,0.008,145.847c-0.003,8.068-5.222,13.252-13.299,13.254
	c-27.494,0.013-54.99,0.003-82.484,0c-1.173,0-2.346,0-3.946,0c0,4.844-0.205,9.405,0.071,13.938
	c0.188,3.108-1.123,4.095-3.906,4.097c-17.532,0.026-35.063,0.129-52.595,0.07c-3.977-0.013-4.193-0.479-4.196-4.337
	C106.29,184.511,106.293,180.046,106.293,175.218z"/>
<path fill-rule="evenodd" clip-rule="evenodd" fill="#FFC729" d="M200.629,39.504c4.338,11.732,4.005,22.162-2.335,31.801
	c-7.745,11.773-19.014,16.467-32.92,14.682c-1.918-0.246-3.101,0.14-4.428,1.472c-20.522,20.585-41.073,41.146-61.675,61.652
	c-7.04,7.008-15.213,6.948-22.343,0.014c-1.566-1.521-3.254-2.987-4.51-4.749c-4.437-6.231-3.455-13.837,2.414-19.711
	c20.475-20.492,40.947-40.991,61.479-61.426c1.501-1.493,1.947-2.782,1.606-4.931c-3.855-24.271,19.854-44.119,43.094-36.165
	c0.821,0.281,1.604,0.663,2.901,1.205c-5.969,5.881-11.701,11.528-17.433,17.179c-0.78,0.769-1.563,1.536-2.309,2.335
	c-1.86,1.989-2.015,4.125-0.112,6.091c3.596,3.719,7.249,7.389,10.999,10.953c2.135,2.027,4.144,1.809,6.514-0.534
	c5.663-5.6,11.287-11.239,16.895-16.896C199.156,41.778,199.641,40.879,200.629,39.504z"/>
<path fill-rule="evenodd" clip-rule="evenodd" fill="#FFC729" d="M121.018,71.23c-2.554,2.442-5.043,4.819-7.893,7.545
	c-5.732-5.838-11.488-11.729-17.278-17.588c-4.616-4.669-9.275-9.299-13.915-13.948c-0.281-0.282-0.554-0.571-0.841-0.849
	c-1.271-1.229-2.673-2.497-4.307-0.751c-1.505,1.607-0.236,2.922,0.925,4.08c5.072,5.063,10.148,10.122,15.243,15.161
	c5.716,5.655,11.456,11.287,17.246,16.988c-1.927,1.894-3.533,3.472-5.394,5.3c-7.033-7.097-14.093-14.234-21.166-21.357
	c-4.139-4.167-8.301-8.31-12.453-12.462c-6.442-6.442-6.477-15.266-0.21-21.843c4.162-4.368,8.555-8.409,15.14-7.255
	c2.814,0.495,6.065,1.508,8.018,3.412c11.818,11.526,23.317,23.378,35.147,35.349c-1.583,1.229-3.368,2.617-5.794,4.501
	c-3.386-3.534-7.373-7.787-11.458-11.944c-6.484-6.597-13.032-13.132-19.557-19.691c-0.28-0.282-0.583-0.541-0.875-0.812
	c-1.176-1.09-2.692-2.099-3.749-0.408c-0.524,0.841-0.145,2.967,0.613,3.768c4.854,5.131,9.936,10.047,14.924,15.052
	C109.208,59.319,115.013,65.181,121.018,71.23z"/>
<path fill-rule="evenodd" clip-rule="evenodd" fill="#FFC729" d="M146.323,108.823c1.689-1.787,3.03-3.205,4.634-4.902
	c5.75,5.807,11.333,11.451,16.923,17.09c3.714,3.745,7.306,7.634,11.233,11.141c1.451,1.3,3.752,1.609,5.578,2.545
	c1.261,0.646,2.671,1.364,3.499,2.447c3.801,4.979,7.421,10.099,11.277,15.402c-1.438,1.508-2.851,2.992-4.512,4.735
	c-5.662-4.142-11.292-8.178-16.803-12.372c-0.755-0.574-1.156-1.875-1.322-2.907c-0.522-3.257-2.5-5.477-4.753-7.679
	C163.471,125.903,154.959,117.39,146.323,108.823z"/>
</svg>
