<?xml version="1.0" encoding="utf-8"?>
<!-- Generator: Adobe Illustrator 16.0.0, SVG Export Plug-In . SVG Version: 6.00 Build 0)  -->
<!DOCTYPE svg PUBLIC "-//W3C//DTD SVG 1.1//EN" "http://www.w3.org/Graphics/SVG/1.1/DTD/svg11.dtd">
<svg version="1.1" id="Capa_1" xmlns="http://www.w3.org/2000/svg" xmlns:xlink="http://www.w3.org/1999/xlink" x="0px" y="0px"
	 width="66.253px" height="27px" viewBox="0 0 66.253 27" enable-background="new 0 0 66.253 27" xml:space="preserve">
<g>
	<g>
		<path fill-rule="evenodd" clip-rule="evenodd" fill="#FFFFFF" d="M11.247,16.541c0-2.699-0.001-5.397,0-8.097
			c0-0.604,0.048-0.637,0.638-0.524c5.203,0.982,10.405,1.967,15.611,2.936c0.437,0.081,0.614,0.232,0.61,0.713
			c-0.021,3.346-0.021,6.693,0,10.039c0.004,0.483-0.182,0.634-0.614,0.716c-5.222,0.974-10.439,1.962-15.657,2.947
			c-0.525,0.099-0.586,0.052-0.588-0.494C11.246,22.031,11.247,19.286,11.247,16.541z M12.566,9.723c0,0.258,0,0.44,0,0.621
			c0,2.851,0,5.702,0,8.552c0,1.372-0.004,2.744,0.007,4.114c0.001,0.136,0.042,0.343,0.134,0.395
			c0.382,0.214,0.96-0.177,0.96-0.623c0-4.13,0-8.26,0-12.39c0-0.092,0.028-0.199-0.008-0.272c-0.054-0.107-0.14-0.244-0.239-0.271
			C13.174,9.78,12.911,9.768,12.566,9.723z M15.083,10.077c0,4.372,0,8.665,0,12.956c0.85,0.083,0.926,0.02,0.926-0.748
			c0-3.823,0-7.647-0.001-11.472c0-0.194-0.016-0.391-0.025-0.594C15.668,10.169,15.396,10.127,15.083,10.077z M17.28,22.697
			c0.845,0.042,0.852,0.035,0.852-0.702c0-3.39,0-6.78,0-10.168c0-0.324-0.012-0.648,0.004-0.971
			c0.013-0.257-0.096-0.369-0.343-0.379c-0.162-0.005-0.325-0.021-0.513-0.033C17.28,14.547,17.28,18.606,17.28,22.697z
			 M19.28,10.792c-0.013,0.1-0.037,0.204-0.037,0.308c-0.003,3.639,0.001,7.278-0.008,10.917c-0.002,0.373,0.135,0.44,0.473,0.387
			c0.35-0.057,0.338-0.28,0.338-0.54c-0.002-3.484-0.001-6.969-0.002-10.454C20.044,10.783,19.979,10.729,19.28,10.792z
			 M21.073,11.06c-0.016,0.097-0.047,0.199-0.047,0.301c-0.002,3.47,0,6.938-0.008,10.408c-0.001,0.351,0.136,0.418,0.45,0.362
			c0.341-0.06,0.29-0.3,0.29-0.526c0.002-3.33,0.002-6.66,0-9.991C21.759,11.054,21.723,11.027,21.073,11.06z M22.77,21.911
			c0.533,0.033,0.63-0.211,0.628-0.624c-0.013-3.144-0.007-6.288-0.008-9.432c0-0.568-0.022-0.586-0.62-0.515
			C22.77,14.857,22.77,18.375,22.77,21.911z M24.227,11.535c0,0.194,0,0.361,0,0.528c0,2.377,0,4.752,0,7.128
			c0,0.711-0.012,1.421,0.012,2.13c0.004,0.115,0.159,0.227,0.244,0.339c0.107-0.116,0.22-0.229,0.319-0.352
			c0.023-0.026,0.005-0.089,0.005-0.136c0-3.055-0.007-6.11,0.007-9.165C24.815,11.613,24.676,11.474,24.227,11.535z M25.618,16.586
			c0,1.493-0.003,2.988,0.004,4.482c0.001,0.126,0.031,0.288,0.112,0.362c0.057,0.051,0.275,0.022,0.331-0.044
			c0.084-0.104,0.123-0.271,0.123-0.411c0.008-2.943,0.004-5.885,0.01-8.827c0-0.247-0.032-0.432-0.328-0.433
			c-0.331-0.002-0.25,0.252-0.25,0.433C25.615,13.628,25.618,15.106,25.618,16.586z M26.919,21.241
			c0.422,0.075,0.478-0.123,0.477-0.438c-0.008-2.809-0.004-5.615-0.004-8.423c0-0.215,0.039-0.484-0.279-0.448
			c-0.088,0.011-0.204,0.289-0.204,0.445c-0.013,2.808-0.009,5.615-0.009,8.422C26.899,20.948,26.912,21.097,26.919,21.241z"/>
		<path fill-rule="evenodd" clip-rule="evenodd" fill="#FFFFFF" d="M10.502,16.574c0,2.714,0,5.427,0,8.142
			c-0.001,0.614-0.058,0.654-0.674,0.554c-1.124-0.185-2.248-0.376-3.376-0.536c-0.381-0.054-0.511-0.211-0.509-0.6
			c0.012-5.042,0.009-10.085,0.001-15.127c0-0.334,0.085-0.5,0.441-0.552C7.56,8.286,8.729,8.086,9.898,7.899
			c0.56-0.088,0.604-0.048,0.604,0.531C10.502,11.146,10.502,13.86,10.502,16.574z M7.207,16.873c0-0.002,0-0.002,0-0.004
			c0.23,0,0.473,0.04,0.69-0.016c0.126-0.031,0.288-0.211,0.295-0.33c0.006-0.118-0.158-0.343-0.261-0.353
			c-0.459-0.038-0.925-0.04-1.383-0.001c-0.105,0.008-0.282,0.241-0.266,0.345c0.022,0.133,0.188,0.299,0.326,0.344
			C6.791,16.918,7.007,16.873,7.207,16.873z"/>
		<path fill-rule="evenodd" clip-rule="evenodd" fill="#FFFFFF" d="M5.276,16.555c0,2.437,0.002,4.873,0,7.31
			c-0.001,0.589-0.014,0.602-0.604,0.51c-1.139-0.18-2.275-0.394-3.422-0.532c-0.48-0.058-0.56-0.262-0.556-0.685
			c0.018-2.129,0.008-4.257,0.008-6.384c0-2.281,0.011-4.564-0.009-6.846C0.69,9.513,0.831,9.354,1.224,9.297
			C2.397,9.128,3.567,8.94,4.736,8.739C5.135,8.671,5.287,8.765,5.284,9.2C5.268,11.652,5.276,14.104,5.276,16.555z M3.702,16.147
			c0,0.002,0,0.003,0,0.004c-0.231,0-0.473-0.04-0.69,0.016c-0.12,0.031-0.273,0.223-0.274,0.344
			c-0.002,0.118,0.162,0.331,0.267,0.34c0.443,0.039,0.896,0.044,1.339,0c0.121-0.013,0.289-0.229,0.309-0.368
			c0.013-0.096-0.177-0.284-0.307-0.32C4.144,16.107,3.918,16.147,3.702,16.147z"/>
	</g>
	<path fill="#FFFFFF" d="M29.236,11.177h7.998v1.86h-5.106v2.52h3.97v1.86h-3.97v2.67h5.106v1.938h-7.998V11.177z"/>
	<path fill="#FFFFFF" d="M38.651,11.177h2.89v10.849h-2.89V11.177z"/>
	<g>
		<path fill="#FFFFFF" d="M50.746,10.297c0.022-0.017,0.044-0.033,0.064-0.053l2.284-2.306c0.179-0.181,0.192-0.467,0.033-0.663
			c-0.932-1.145-2.296-1.885-3.765-2.064c-0.165-0.02-0.328,0.044-0.438,0.168c-0.107,0.126-0.146,0.297-0.103,0.458l0.979,3.552
			c0.005,0.019,0.011,0.036,0.017,0.056l0.158,0.582c0.014,0.046,0.032,0.089,0.058,0.129c0.045,0.005,0.09,0.01,0.133,0.016
			C50.36,10.199,50.553,10.241,50.746,10.297z"/>
		<path fill="#FFFFFF" d="M53.328,12.332c0.156,0.292,0.275,0.601,0.357,0.924c0.168-0.03,0.315-0.144,0.379-0.313
			c0.521-1.387,0.487-2.905-0.092-4.271c-0.065-0.153-0.201-0.264-0.364-0.296c-0.163-0.031-0.331,0.021-0.447,0.139l-1.933,1.952
			c0.224,0.093,0.446,0.206,0.666,0.341C52.504,11.181,52.985,11.689,53.328,12.332z"/>
		<path fill="#FFFFFF" d="M44.138,8.078c0.06,0.058,0.135,0.103,0.22,0.125l4.179,1.128c0.172,0.045,0.355-0.006,0.481-0.131
			c0.125-0.125,0.174-0.31,0.126-0.483l-0.855-3.114c-0.068-0.245-0.309-0.399-0.561-0.357c-1.189,0.194-2.307,0.772-3.15,1.623
			c-0.173,0.175-0.336,0.362-0.484,0.555c-0.101,0.132-0.128,0.304-0.076,0.461C44.041,7.958,44.085,8.024,44.138,8.078z"/>
		<path fill="#FFFFFF" d="M47.379,9.696c-0.046-0.168-0.18-0.277-0.35-0.324l-3.144-0.835c-0.245-0.065-0.502,0.022-0.594,0.26
			c-0.156,0.406-0.264,1.202-0.326,1.202h4.38C47.397,9.999,47.41,9.815,47.379,9.696z"/>
	</g>
	<path fill="#FFFFFF" d="M44.028,11.177h4.134c0.802,0,1.417,0.031,1.845,0.092s0.859,0.225,1.297,0.493
		c0.437,0.268,0.777,0.634,1.025,1.096c0.247,0.464,0.371,0.984,0.371,1.562c0,1.357-0.616,2.311-1.85,2.862l2.418,4.744h-3.146
		l-1.759-4.291h-1.444v4.291h-2.891V11.177z M46.919,12.934v3.044h1.271c1.13,0,1.696-0.522,1.696-1.565
		c0-0.36-0.084-0.655-0.251-0.887c-0.166-0.229-0.36-0.386-0.582-0.469c-0.223-0.081-0.548-0.123-0.979-0.123H46.919z"/>
	<g>
		<path fill="#FFFFFF" d="M29.121,24.193v-1.744h0.578c0.578,0,0.868,0.283,0.868,0.851c0,0.271-0.079,0.488-0.238,0.65
			c-0.157,0.162-0.366,0.243-0.63,0.243H29.121z M29.488,22.769v1.105h0.183c0.158,0,0.284-0.05,0.374-0.153
			c0.091-0.101,0.136-0.24,0.136-0.417c0-0.166-0.045-0.296-0.135-0.392s-0.215-0.144-0.378-0.144H29.488z"/>
		<path fill="#FFFFFF" d="M32.233,24.193h-0.4l-0.115-0.389h-0.58l-0.114,0.389h-0.398l0.593-1.744h0.437L32.233,24.193z
			 M31.634,23.504l-0.176-0.587c-0.013-0.044-0.021-0.096-0.026-0.156h-0.01c-0.004,0.051-0.013,0.103-0.028,0.151l-0.177,0.592
			H31.634z"/>
		<path fill="#FFFFFF" d="M34.295,24.193h-0.362v-1.044c0-0.112,0.005-0.237,0.014-0.373h-0.009
			c-0.02,0.107-0.036,0.185-0.052,0.231l-0.381,1.186h-0.301l-0.39-1.174c-0.01-0.031-0.026-0.112-0.052-0.243h-0.009
			c0.009,0.172,0.015,0.323,0.015,0.452v0.965h-0.331v-1.744h0.537l0.334,1.034c0.026,0.082,0.046,0.165,0.058,0.249h0.007
			c0.021-0.097,0.042-0.18,0.064-0.252l0.333-1.031h0.524V24.193z"/>
		<path fill="#FFFFFF" d="M36.1,24.193h-0.4l-0.116-0.389h-0.58l-0.113,0.389H34.49l0.595-1.744h0.435L36.1,24.193z M35.499,23.504
			l-0.174-0.587c-0.015-0.044-0.022-0.096-0.028-0.156h-0.01c-0.004,0.051-0.013,0.103-0.028,0.151l-0.177,0.592H35.499z"/>
		<path fill="#FFFFFF" d="M37.61,24.076c-0.158,0.098-0.356,0.148-0.593,0.148c-0.263,0-0.47-0.079-0.62-0.233
			c-0.151-0.155-0.227-0.37-0.227-0.643c0-0.273,0.082-0.497,0.247-0.669c0.165-0.173,0.385-0.26,0.66-0.26
			c0.173,0,0.325,0.025,0.457,0.076v0.369c-0.127-0.078-0.28-0.117-0.462-0.117c-0.153,0-0.277,0.053-0.373,0.159
			c-0.095,0.105-0.143,0.246-0.143,0.424c0,0.179,0.042,0.317,0.129,0.416c0.085,0.098,0.201,0.146,0.348,0.146
			c0.088,0,0.157-0.013,0.209-0.04v-0.34h-0.325v-0.314h0.692V24.076z"/>
		<path fill="#FFFFFF" d="M38.906,24.193h-0.979v-1.744h0.94v0.319h-0.573v0.389h0.533v0.318h-0.533v0.398h0.611V24.193z"/>
		<path fill="#FFFFFF" d="M40.313,22.449v0.304h-0.136v1.136h0.136v0.305h-0.64v-0.305h0.138v-1.136h-0.138v-0.304H40.313z"/>
		<path fill="#FFFFFF" d="M42.014,24.193h-0.37l-0.672-1.096c-0.039-0.064-0.067-0.112-0.082-0.145h-0.005
			c0.007,0.061,0.009,0.155,0.009,0.282v0.958h-0.346v-1.744h0.396l0.647,1.063c0.029,0.048,0.057,0.094,0.081,0.142h0.005
			c-0.006-0.041-0.009-0.12-0.009-0.24v-0.964h0.346V24.193z"/>
		<path fill="#FFFFFF" d="M42.313,24.126v-0.389c0.065,0.06,0.137,0.104,0.215,0.133c0.077,0.03,0.154,0.044,0.233,0.044
			c0.047,0,0.088-0.003,0.121-0.013c0.035-0.009,0.063-0.021,0.087-0.037c0.023-0.016,0.04-0.034,0.052-0.056
			c0.012-0.022,0.017-0.045,0.017-0.069c0-0.035-0.009-0.065-0.027-0.092c-0.018-0.027-0.042-0.052-0.074-0.074
			c-0.031-0.023-0.069-0.045-0.111-0.065c-0.043-0.021-0.091-0.043-0.14-0.064c-0.128-0.058-0.223-0.127-0.285-0.208
			c-0.063-0.083-0.095-0.182-0.095-0.298c0-0.09,0.019-0.169,0.052-0.233c0.035-0.066,0.08-0.119,0.14-0.161
			c0.058-0.042,0.126-0.073,0.204-0.094c0.077-0.019,0.159-0.029,0.245-0.029c0.085,0,0.16,0.005,0.227,0.017
			c0.065,0.011,0.125,0.028,0.181,0.051v0.362c-0.027-0.019-0.057-0.037-0.089-0.053s-0.066-0.028-0.1-0.038
			c-0.035-0.011-0.068-0.018-0.103-0.022c-0.033-0.005-0.065-0.008-0.096-0.008c-0.041,0-0.08,0.005-0.113,0.013
			c-0.033,0.01-0.063,0.021-0.087,0.036c-0.022,0.016-0.041,0.034-0.054,0.056c-0.014,0.021-0.02,0.045-0.02,0.072
			c0,0.03,0.006,0.056,0.021,0.079c0.016,0.022,0.035,0.044,0.063,0.064c0.025,0.021,0.059,0.041,0.097,0.061
			c0.037,0.021,0.08,0.042,0.128,0.063c0.065,0.028,0.124,0.061,0.176,0.093c0.053,0.032,0.097,0.07,0.134,0.111
			c0.036,0.041,0.064,0.089,0.086,0.142c0.019,0.054,0.029,0.115,0.029,0.185c0,0.099-0.019,0.18-0.052,0.246
			c-0.035,0.065-0.081,0.12-0.141,0.16c-0.06,0.041-0.128,0.071-0.207,0.089c-0.079,0.017-0.161,0.027-0.248,0.027
			c-0.09,0-0.174-0.009-0.256-0.024C42.441,24.184,42.372,24.158,42.313,24.126z"/>
		<path fill="#FFFFFF" d="M44.06,23.593v0.601h-0.367v-1.744h0.576c0.41,0,0.616,0.185,0.616,0.556c0,0.176-0.06,0.316-0.177,0.425
			c-0.119,0.108-0.275,0.163-0.474,0.163H44.06z M44.06,22.751v0.543h0.145c0.196,0,0.293-0.091,0.293-0.274
			c0-0.18-0.097-0.269-0.293-0.269H44.06z"/>
		<path fill="#FFFFFF" d="M46.101,24.193h-0.979v-1.744h0.94v0.319h-0.573v0.389h0.533v0.318h-0.533v0.398h0.611V24.193z"/>
		<path fill="#FFFFFF" d="M47.53,24.132c-0.119,0.062-0.273,0.093-0.465,0.093c-0.251,0-0.447-0.079-0.591-0.236
			c-0.144-0.158-0.214-0.367-0.214-0.629c0-0.279,0.08-0.506,0.24-0.679c0.161-0.174,0.37-0.261,0.628-0.261
			c0.158,0,0.293,0.021,0.401,0.064v0.379c-0.108-0.07-0.232-0.104-0.372-0.104c-0.153,0-0.276,0.051-0.371,0.153
			c-0.094,0.104-0.141,0.243-0.141,0.419c0,0.169,0.044,0.303,0.133,0.402c0.088,0.101,0.208,0.151,0.358,0.151
			c0.144,0,0.273-0.037,0.393-0.112V24.132z"/>
		<path fill="#FFFFFF" d="M48.96,22.769h-0.465v1.425h-0.368v-1.425h-0.464v-0.319h1.297V22.769z"/>
		<path fill="#FFFFFF" d="M49.684,22.449v0.304h-0.137v1.136h0.137v0.305h-0.641v-0.305h0.137v-1.136h-0.137v-0.304H49.684z"/>
		<path fill="#FFFFFF" d="M50.606,24.225c-0.234,0-0.424-0.081-0.571-0.244s-0.22-0.375-0.22-0.637c0-0.275,0.074-0.498,0.224-0.668
			c0.148-0.171,0.348-0.256,0.593-0.256c0.232,0,0.421,0.081,0.564,0.244s0.216,0.378,0.216,0.645c0,0.275-0.075,0.496-0.224,0.663
			C51.04,24.14,50.847,24.225,50.606,24.225z M50.623,22.759c-0.129,0-0.231,0.051-0.308,0.154s-0.113,0.24-0.113,0.411
			c0,0.172,0.037,0.309,0.113,0.409s0.175,0.151,0.299,0.151c0.125,0,0.226-0.049,0.299-0.147c0.075-0.098,0.113-0.232,0.113-0.406
			c0-0.182-0.036-0.321-0.109-0.422C50.847,22.809,50.747,22.759,50.623,22.759z"/>
		<path fill="#FFFFFF" d="M53.149,24.193h-0.37l-0.672-1.096c-0.039-0.064-0.067-0.112-0.083-0.145h-0.004
			c0.007,0.061,0.009,0.155,0.009,0.282v0.958h-0.347v-1.744h0.396l0.646,1.063c0.03,0.048,0.058,0.094,0.082,0.142h0.005
			c-0.007-0.041-0.009-0.12-0.009-0.24v-0.964h0.346V24.193z"/>
	</g>
	<path fill-rule="evenodd" clip-rule="evenodd" fill="#FFFFFF" d="M66.253,9.94c-2.388,2.756-6.07,5.219-8.83,5.938
		c0.916-0.883,1.895-1.779,2.819-2.729c0.852-0.872,1.54-1.866,1.861-3.066c0.04-0.148-0.021-0.4-0.131-0.502
		c-2.895-2.701-6.274-4.483-10.162-5.259c-2.497-0.499-5.018-0.548-7.542-0.205c-5.514,0.75-10.446,2.959-15.035,6.023
		c-0.05,0.034-0.112,0.051-0.244-0.025c0.871-0.743,1.723-1.511,2.612-2.228c2.841-2.286,5.912-4.175,9.363-5.407
		c2.717-0.972,5.511-1.454,8.391-1.305c3.952,0.205,7.543,1.528,10.853,3.662c2.089,1.348,3.967,2.952,5.699,4.729
		C66.026,9.688,66.14,9.817,66.253,9.94z"/>
</g>
</svg>
